<?xml version="1.0" encoding="iso-8859-1"?>
<!-- Uploaded to: SVG Repo, www.svgrepo.com, Generator: SVG Repo Mixer Tools -->
<svg fill="#000000" height="800px" width="800px" version="1.1" id="Layer_1" xmlns="http://www.w3.org/2000/svg" xmlns:xlink="http://www.w3.org/1999/xlink" 
	 viewBox="0 0 512 512" xml:space="preserve">
<g>
	<g>
		<path d="M406.261,0H105.739c-9.223,0-16.696,7.473-16.696,16.696v183.652h333.913V16.696C422.957,7.473,415.484,0,406.261,0z
			 M189.217,150.261c0,9.223-7.473,16.696-16.696,16.696c-9.223,0-16.696-7.473-16.696-16.696V83.478
			c0-9.223,7.473-16.696,16.696-16.696c9.223,0,16.696,7.473,16.696,16.696V150.261z"/>
	</g>
</g>
<g>
	<g>
		<path d="M89.044,233.739v261.565c0,9.223,7.473,16.696,16.696,16.696h300.522c9.223,0,16.696-7.473,16.696-16.696V233.739H89.044z
			 M189.217,428.522c0,9.223-7.473,16.696-16.696,16.696c-9.223,0-16.696-7.473-16.696-16.696V283.826
			c0-9.223,7.473-16.696,16.696-16.696c9.223,0,16.696,7.473,16.696,16.696V428.522z"/>
	</g>
</g>
</svg>